<mxfile host="app.diagrams.net" modified="2022-08-10T06:33:15.010Z" agent="5.0 (Macintosh)" etag="lCYKO_PEf3GVySPEC0iK" version="20.2.2" type="github">
  <diagram id="pUWvV2eLPASHMCwtmdOP" name="第 1 页">
    <mxGraphModel dx="1218" dy="795" grid="1" gridSize="10" guides="1" tooltips="1" connect="1" arrows="1" fold="1" page="1" pageScale="1" pageWidth="2000" pageHeight="3000" math="0" shadow="0">
      <root>
        <mxCell id="0" />
        <mxCell id="1" parent="0" />
        <mxCell id="alJdCRDrdjsyQlIiN1J4-14" style="edgeStyle=orthogonalEdgeStyle;rounded=0;orthogonalLoop=1;jettySize=auto;html=1;exitX=0.25;exitY=1;exitDx=0;exitDy=0;entryX=0.2;entryY=0;entryDx=0;entryDy=0;entryPerimeter=0;fontSize=18;" edge="1" parent="1" source="alJdCRDrdjsyQlIiN1J4-1" target="alJdCRDrdjsyQlIiN1J4-2">
          <mxGeometry relative="1" as="geometry" />
        </mxCell>
        <mxCell id="alJdCRDrdjsyQlIiN1J4-1" value="" style="rounded=1;whiteSpace=wrap;html=1;fontSize=18;fillColor=#dae8fc;strokeColor=#6c8ebf;" vertex="1" parent="1">
          <mxGeometry x="400" y="40" width="240" height="260" as="geometry" />
        </mxCell>
        <mxCell id="alJdCRDrdjsyQlIiN1J4-15" style="edgeStyle=orthogonalEdgeStyle;rounded=0;orthogonalLoop=1;jettySize=auto;html=1;exitX=0.5;exitY=0;exitDx=0;exitDy=0;entryX=0.5;entryY=1;entryDx=0;entryDy=0;fontSize=18;" edge="1" parent="1" source="alJdCRDrdjsyQlIiN1J4-2" target="alJdCRDrdjsyQlIiN1J4-1">
          <mxGeometry relative="1" as="geometry" />
        </mxCell>
        <mxCell id="alJdCRDrdjsyQlIiN1J4-52" style="edgeStyle=orthogonalEdgeStyle;rounded=0;orthogonalLoop=1;jettySize=auto;html=1;exitX=1;exitY=0.5;exitDx=0;exitDy=0;entryX=0.75;entryY=0;entryDx=0;entryDy=0;fontSize=15;" edge="1" parent="1" source="alJdCRDrdjsyQlIiN1J4-2" target="alJdCRDrdjsyQlIiN1J4-33">
          <mxGeometry relative="1" as="geometry" />
        </mxCell>
        <mxCell id="alJdCRDrdjsyQlIiN1J4-56" style="edgeStyle=orthogonalEdgeStyle;rounded=0;orthogonalLoop=1;jettySize=auto;html=1;exitX=0.88;exitY=1.017;exitDx=0;exitDy=0;entryX=-0.005;entryY=0.113;entryDx=0;entryDy=0;entryPerimeter=0;fontSize=15;exitPerimeter=0;" edge="1" parent="1" source="alJdCRDrdjsyQlIiN1J4-2" target="alJdCRDrdjsyQlIiN1J4-33">
          <mxGeometry relative="1" as="geometry" />
        </mxCell>
        <mxCell id="alJdCRDrdjsyQlIiN1J4-2" value="Master" style="rounded=1;whiteSpace=wrap;html=1;fontSize=18;fillColor=#ffe6cc;strokeColor=#d79b00;" vertex="1" parent="1">
          <mxGeometry x="420" y="480" width="200" height="60" as="geometry" />
        </mxCell>
        <mxCell id="alJdCRDrdjsyQlIiN1J4-47" style="rounded=0;orthogonalLoop=1;jettySize=auto;html=1;exitX=0.5;exitY=0;exitDx=0;exitDy=0;entryX=0.25;entryY=1;entryDx=0;entryDy=0;fontSize=15;" edge="1" parent="1" source="alJdCRDrdjsyQlIiN1J4-3" target="alJdCRDrdjsyQlIiN1J4-2">
          <mxGeometry relative="1" as="geometry" />
        </mxCell>
        <mxCell id="alJdCRDrdjsyQlIiN1J4-3" value="" style="rounded=1;whiteSpace=wrap;html=1;fontSize=18;fillColor=#d5e8d4;strokeColor=#82b366;" vertex="1" parent="1">
          <mxGeometry x="220" y="690" width="200" height="240" as="geometry" />
        </mxCell>
        <mxCell id="alJdCRDrdjsyQlIiN1J4-5" value="TaskScheduler" style="rounded=1;whiteSpace=wrap;html=1;fontSize=18;" vertex="1" parent="1">
          <mxGeometry x="420" y="90" width="200" height="40" as="geometry" />
        </mxCell>
        <mxCell id="alJdCRDrdjsyQlIiN1J4-6" value="DAGScheduler" style="rounded=1;whiteSpace=wrap;html=1;fontSize=18;" vertex="1" parent="1">
          <mxGeometry x="420" y="140" width="200" height="40" as="geometry" />
        </mxCell>
        <mxCell id="alJdCRDrdjsyQlIiN1J4-7" value="StandaloneAppClient" style="rounded=1;whiteSpace=wrap;html=1;fontSize=18;" vertex="1" parent="1">
          <mxGeometry x="420" y="190" width="200" height="40" as="geometry" />
        </mxCell>
        <mxCell id="alJdCRDrdjsyQlIiN1J4-8" value="ClientEndpoint(driver)" style="rounded=1;whiteSpace=wrap;html=1;fontSize=18;" vertex="1" parent="1">
          <mxGeometry x="420" y="240" width="200" height="40" as="geometry" />
        </mxCell>
        <mxCell id="alJdCRDrdjsyQlIiN1J4-9" value="Driver" style="text;html=1;strokeColor=none;fillColor=none;align=center;verticalAlign=middle;whiteSpace=wrap;rounded=0;fontSize=18;" vertex="1" parent="1">
          <mxGeometry x="270" y="185" width="80" height="30" as="geometry" />
        </mxCell>
        <mxCell id="alJdCRDrdjsyQlIiN1J4-16" value="Registration" style="text;html=1;align=center;verticalAlign=middle;resizable=0;points=[];autosize=1;strokeColor=none;fillColor=none;fontSize=15;" vertex="1" parent="1">
          <mxGeometry x="370" y="365" width="100" height="30" as="geometry" />
        </mxCell>
        <mxCell id="alJdCRDrdjsyQlIiN1J4-17" value="RegisteredApplication" style="text;html=1;align=center;verticalAlign=middle;resizable=0;points=[];autosize=1;strokeColor=none;fillColor=none;fontSize=15;" vertex="1" parent="1">
          <mxGeometry x="520" y="365" width="170" height="30" as="geometry" />
        </mxCell>
        <mxCell id="alJdCRDrdjsyQlIiN1J4-18" value="SparkContext" style="text;html=1;strokeColor=none;fillColor=none;align=center;verticalAlign=middle;whiteSpace=wrap;rounded=0;fontSize=18;" vertex="1" parent="1">
          <mxGeometry x="480" y="50" width="80" height="30" as="geometry" />
        </mxCell>
        <mxCell id="alJdCRDrdjsyQlIiN1J4-24" value="" style="group" vertex="1" connectable="0" parent="1">
          <mxGeometry x="240" y="700" width="160" height="100" as="geometry" />
        </mxCell>
        <mxCell id="alJdCRDrdjsyQlIiN1J4-19" value="" style="rounded=1;whiteSpace=wrap;html=1;fontSize=18;fillColor=#dae8fc;strokeColor=#6c8ebf;" vertex="1" parent="alJdCRDrdjsyQlIiN1J4-24">
          <mxGeometry width="160" height="100" as="geometry" />
        </mxCell>
        <mxCell id="alJdCRDrdjsyQlIiN1J4-20" value="Task" style="rounded=1;whiteSpace=wrap;html=1;fontSize=18;" vertex="1" parent="alJdCRDrdjsyQlIiN1J4-24">
          <mxGeometry x="10" y="50" width="50" height="40" as="geometry" />
        </mxCell>
        <mxCell id="alJdCRDrdjsyQlIiN1J4-21" value="Task" style="rounded=1;whiteSpace=wrap;html=1;fontSize=18;" vertex="1" parent="alJdCRDrdjsyQlIiN1J4-24">
          <mxGeometry x="70" y="50" width="50" height="40" as="geometry" />
        </mxCell>
        <mxCell id="alJdCRDrdjsyQlIiN1J4-22" value="Cache" style="rounded=1;whiteSpace=wrap;html=1;fontSize=18;" vertex="1" parent="alJdCRDrdjsyQlIiN1J4-24">
          <mxGeometry x="110" width="50" height="40" as="geometry" />
        </mxCell>
        <mxCell id="alJdCRDrdjsyQlIiN1J4-23" value="Executor" style="text;html=1;strokeColor=none;fillColor=none;align=center;verticalAlign=middle;whiteSpace=wrap;rounded=0;fontSize=18;" vertex="1" parent="alJdCRDrdjsyQlIiN1J4-24">
          <mxGeometry x="10" y="10" width="80" height="30" as="geometry" />
        </mxCell>
        <mxCell id="alJdCRDrdjsyQlIiN1J4-25" value="" style="group" vertex="1" connectable="0" parent="1">
          <mxGeometry x="240" y="810" width="160" height="100" as="geometry" />
        </mxCell>
        <mxCell id="alJdCRDrdjsyQlIiN1J4-26" value="" style="rounded=1;whiteSpace=wrap;html=1;fontSize=18;fillColor=#dae8fc;strokeColor=#6c8ebf;" vertex="1" parent="alJdCRDrdjsyQlIiN1J4-25">
          <mxGeometry width="160" height="100" as="geometry" />
        </mxCell>
        <mxCell id="alJdCRDrdjsyQlIiN1J4-27" value="Task" style="rounded=1;whiteSpace=wrap;html=1;fontSize=18;" vertex="1" parent="alJdCRDrdjsyQlIiN1J4-25">
          <mxGeometry x="10" y="50" width="50" height="40" as="geometry" />
        </mxCell>
        <mxCell id="alJdCRDrdjsyQlIiN1J4-28" value="Task" style="rounded=1;whiteSpace=wrap;html=1;fontSize=18;" vertex="1" parent="alJdCRDrdjsyQlIiN1J4-25">
          <mxGeometry x="70" y="50" width="50" height="40" as="geometry" />
        </mxCell>
        <mxCell id="alJdCRDrdjsyQlIiN1J4-29" value="Cache" style="rounded=1;whiteSpace=wrap;html=1;fontSize=18;" vertex="1" parent="alJdCRDrdjsyQlIiN1J4-25">
          <mxGeometry x="110" width="50" height="40" as="geometry" />
        </mxCell>
        <mxCell id="alJdCRDrdjsyQlIiN1J4-30" value="Executor" style="text;html=1;strokeColor=none;fillColor=none;align=center;verticalAlign=middle;whiteSpace=wrap;rounded=0;fontSize=18;" vertex="1" parent="alJdCRDrdjsyQlIiN1J4-25">
          <mxGeometry x="10" y="10" width="80" height="30" as="geometry" />
        </mxCell>
        <mxCell id="alJdCRDrdjsyQlIiN1J4-32" value="Worker" style="text;html=1;strokeColor=none;fillColor=none;align=center;verticalAlign=middle;whiteSpace=wrap;rounded=0;fontSize=18;" vertex="1" parent="1">
          <mxGeometry x="130" y="795" width="80" height="30" as="geometry" />
        </mxCell>
        <mxCell id="alJdCRDrdjsyQlIiN1J4-54" style="edgeStyle=orthogonalEdgeStyle;rounded=0;orthogonalLoop=1;jettySize=auto;html=1;exitX=0;exitY=0.25;exitDx=0;exitDy=0;entryX=0.75;entryY=1;entryDx=0;entryDy=0;fontSize=15;" edge="1" parent="1" source="alJdCRDrdjsyQlIiN1J4-33" target="alJdCRDrdjsyQlIiN1J4-2">
          <mxGeometry relative="1" as="geometry" />
        </mxCell>
        <mxCell id="alJdCRDrdjsyQlIiN1J4-33" value="" style="rounded=1;whiteSpace=wrap;html=1;fontSize=18;fillColor=#d5e8d4;strokeColor=#82b366;" vertex="1" parent="1">
          <mxGeometry x="660" y="690" width="200" height="240" as="geometry" />
        </mxCell>
        <mxCell id="alJdCRDrdjsyQlIiN1J4-34" value="" style="group" vertex="1" connectable="0" parent="1">
          <mxGeometry x="680" y="700" width="160" height="100" as="geometry" />
        </mxCell>
        <mxCell id="alJdCRDrdjsyQlIiN1J4-35" value="" style="rounded=1;whiteSpace=wrap;html=1;fontSize=18;fillColor=#dae8fc;strokeColor=#6c8ebf;" vertex="1" parent="alJdCRDrdjsyQlIiN1J4-34">
          <mxGeometry width="160" height="100" as="geometry" />
        </mxCell>
        <mxCell id="alJdCRDrdjsyQlIiN1J4-36" value="Task" style="rounded=1;whiteSpace=wrap;html=1;fontSize=18;" vertex="1" parent="alJdCRDrdjsyQlIiN1J4-34">
          <mxGeometry x="10" y="50" width="50" height="40" as="geometry" />
        </mxCell>
        <mxCell id="alJdCRDrdjsyQlIiN1J4-37" value="Task" style="rounded=1;whiteSpace=wrap;html=1;fontSize=18;" vertex="1" parent="alJdCRDrdjsyQlIiN1J4-34">
          <mxGeometry x="70" y="50" width="50" height="40" as="geometry" />
        </mxCell>
        <mxCell id="alJdCRDrdjsyQlIiN1J4-38" value="Cache" style="rounded=1;whiteSpace=wrap;html=1;fontSize=18;" vertex="1" parent="alJdCRDrdjsyQlIiN1J4-34">
          <mxGeometry x="110" width="50" height="40" as="geometry" />
        </mxCell>
        <mxCell id="alJdCRDrdjsyQlIiN1J4-39" value="Executor" style="text;html=1;strokeColor=none;fillColor=none;align=center;verticalAlign=middle;whiteSpace=wrap;rounded=0;fontSize=18;" vertex="1" parent="alJdCRDrdjsyQlIiN1J4-34">
          <mxGeometry x="10" y="10" width="80" height="30" as="geometry" />
        </mxCell>
        <mxCell id="alJdCRDrdjsyQlIiN1J4-40" value="" style="group" vertex="1" connectable="0" parent="1">
          <mxGeometry x="680" y="810" width="160" height="100" as="geometry" />
        </mxCell>
        <mxCell id="alJdCRDrdjsyQlIiN1J4-41" value="" style="rounded=1;whiteSpace=wrap;html=1;fontSize=18;fillColor=#dae8fc;strokeColor=#6c8ebf;" vertex="1" parent="alJdCRDrdjsyQlIiN1J4-40">
          <mxGeometry width="160" height="100" as="geometry" />
        </mxCell>
        <mxCell id="alJdCRDrdjsyQlIiN1J4-42" value="Task" style="rounded=1;whiteSpace=wrap;html=1;fontSize=18;" vertex="1" parent="alJdCRDrdjsyQlIiN1J4-40">
          <mxGeometry x="10" y="50" width="50" height="40" as="geometry" />
        </mxCell>
        <mxCell id="alJdCRDrdjsyQlIiN1J4-43" value="Task" style="rounded=1;whiteSpace=wrap;html=1;fontSize=18;" vertex="1" parent="alJdCRDrdjsyQlIiN1J4-40">
          <mxGeometry x="70" y="50" width="50" height="40" as="geometry" />
        </mxCell>
        <mxCell id="alJdCRDrdjsyQlIiN1J4-44" value="Cache" style="rounded=1;whiteSpace=wrap;html=1;fontSize=18;" vertex="1" parent="alJdCRDrdjsyQlIiN1J4-40">
          <mxGeometry x="110" width="50" height="40" as="geometry" />
        </mxCell>
        <mxCell id="alJdCRDrdjsyQlIiN1J4-45" value="Executor" style="text;html=1;strokeColor=none;fillColor=none;align=center;verticalAlign=middle;whiteSpace=wrap;rounded=0;fontSize=18;" vertex="1" parent="alJdCRDrdjsyQlIiN1J4-40">
          <mxGeometry x="10" y="10" width="80" height="30" as="geometry" />
        </mxCell>
        <mxCell id="alJdCRDrdjsyQlIiN1J4-46" value="Worker" style="text;html=1;strokeColor=none;fillColor=none;align=center;verticalAlign=middle;whiteSpace=wrap;rounded=0;fontSize=18;" vertex="1" parent="1">
          <mxGeometry x="570" y="795" width="80" height="30" as="geometry" />
        </mxCell>
        <mxCell id="alJdCRDrdjsyQlIiN1J4-49" value="RegisterWorker" style="text;html=1;align=center;verticalAlign=middle;resizable=0;points=[];autosize=1;strokeColor=none;fillColor=none;fontSize=15;" vertex="1" parent="1">
          <mxGeometry x="530" y="750" width="130" height="30" as="geometry" />
        </mxCell>
        <mxCell id="alJdCRDrdjsyQlIiN1J4-51" value="RegisteredWorker" style="text;html=1;align=center;verticalAlign=middle;resizable=0;points=[];autosize=1;strokeColor=none;fillColor=none;fontSize=15;" vertex="1" parent="1">
          <mxGeometry x="590" y="670" width="140" height="30" as="geometry" />
        </mxCell>
        <mxCell id="alJdCRDrdjsyQlIiN1J4-53" value="LaunchExecutor" style="text;html=1;align=center;verticalAlign=middle;resizable=0;points=[];autosize=1;strokeColor=none;fillColor=none;fontSize=15;" vertex="1" parent="1">
          <mxGeometry x="680" y="510" width="130" height="30" as="geometry" />
        </mxCell>
      </root>
    </mxGraphModel>
  </diagram>
</mxfile>
